<svg width="96" height="96" viewBox="0 0 96 96" fill="none" xmlns="http://www.w3.org/2000/svg">
  <defs>
    <linearGradient id="shieldGradient" x1="18" y1="12" x2="78" y2="84" gradientUnits="userSpaceOnUse">
      <stop stop-color="#F472B6" />
      <stop offset="1" stop-color="#34D399" />
    </linearGradient>
    <linearGradient id="glowGradient" x1="48" y1="10" x2="48" y2="86" gradientUnits="userSpaceOnUse">
      <stop stop-color="#C4B5FD" stop-opacity="0.7" />
      <stop offset="1" stop-color="#312E81" stop-opacity="0" />
    </linearGradient>
  </defs>
  <path d="M48 12L20 22V44C20 63.6 32.8 80.9 48 84C63.2 80.9 76 63.6 76 44V22L48 12Z" fill="url(#shieldGradient)" opacity="0.9" />
  <path d="M48 20L28 26.8V44C28 59.6 37.6 72.7 48 75.1C58.4 72.7 68 59.6 68 44V26.8L48 20Z" fill="#050316" opacity="0.65" />
  <path d="M48 52C53.5228 52 58 47.5228 58 42C58 36.4772 53.5228 32 48 32C42.4772 32 38 36.4772 38 42C38 47.5228 42.4772 52 48 52Z" fill="white" opacity="0.9" />
  <path d="M48 56C40.268 56 34 62.268 34 70H62C62 62.268 55.732 56 48 56Z" fill="url(#glowGradient)" opacity="0.85" />
</svg>
